# xmcd
#
# Track frame offsets:
#  150
#  15625
#  30116
#  45104
#  60179
#  74453
#  88411
#  101880
#  116644
#  130900
#  145328
#  159712
#  174014
#  186717
#  200840
#  215260
#  229147
#  243354
#  257016
#  270998
#
# Disc length: 3764 seconds
#
# Revision: 1
# Processed by: cddbd v1.5.1PL2 Copyright (c) Steve Scherf et al.
# Submitted via: Collectorz.com_Music_Collector 6.10
#
DISCID=170eb214
DTITLE=Fletcher Henderson - Wrappin' It Up [CD2)
DYEAR=2005
DGENRE=Pop Classic Band
TTITLE0=Sweet and Hot
TTITLE1=Clarinet Marmalade
TTITLE2=Sugar Foot Stomp
TTITLE3=Hot and Anxious
TTITLE4=Comin' and Going
TTITLE5=After You've Gone
TTITLE6=Stardust
TTITLE7=Tiger Rag
TTITLE8=Somebody Stole My Gal
TTITLE9=I'm Crazy 'bout My Baby
TTITLE10=Sugar Foot Stomp
TTITLE11=Just Blues
TTITLE12=Singin' the Blues (Till My Daddy Comes Home)
TTITLE13=Sugar Foot Stomp
TTITLE14=Singin' the Blues (Till My Daddy Comes Home)
TTITLE15=Low Down on the Bayou
TTITLE16=The House of David Blues
TTITLE17=Radio Rhythm
TTITLE18=You Rascal You (I'll Be Glad When You're Dead)
TTITLE19=Oh, It Looks Like Rain
EXTD=
EXTT0=
EXTT1=
EXTT2=
EXTT3=
EXTT4=
EXTT5=
EXTT6=
EXTT7=
EXTT8=
EXTT9=
EXTT10=
EXTT11=
EXTT12=
EXTT13=
EXTT14=
EXTT15=
EXTT16=
EXTT17=
EXTT18=
EXTT19=
PLAYORDER=
